<?xml version="1.0" encoding="UTF-8" standalone="no"?>
<svg
   id="master-artboard"
   viewBox="0 0 829.45343 542.98853"
   version="1.1"
   x="0px"
   y="0px"
   width="829.45343"
   height="542.98853"
   enable-background="new 0 0 1400 1400"
   sodipodi:docname="map_backdrop.svg"
   inkscape:version="1.1.2 (b8e25be8, 2022-02-05)"
   xmlns:inkscape="http://www.inkscape.org/namespaces/inkscape"
   xmlns:sodipodi="http://sodipodi.sourceforge.net/DTD/sodipodi-0.dtd"
   xmlns="http://www.w3.org/2000/svg"
   xmlns:svg="http://www.w3.org/2000/svg">
  <defs
     id="defs609" />
  <sodipodi:namedview
     id="namedview607"
     pagecolor="#ffffff"
     bordercolor="#666666"
     borderopacity="1.0"
     inkscape:pageshadow="2"
     inkscape:pageopacity="0.0"
     inkscape:pagecheckerboard="0"
     showgrid="false"
     inkscape:zoom="1"
     inkscape:cx="342"
     inkscape:cy="-9"
     inkscape:window-width="1670"
     inkscape:window-height="936"
     inkscape:window-x="1468"
     inkscape:window-y="26"
     inkscape:window-maximized="0"
     inkscape:current-layer="master-artboard"
     fit-margin-top="0"
     fit-margin-left="0"
     fit-margin-right="0"
     fit-margin-bottom="0" />
  <rect
     style="display:inline;fill:#a9d18e;fill-opacity:1"
     id="rect6194"
     width="829.45343"
     height="542.9715"
     x="0"
     y="0.016709873" />
  <path
     fill="#EDD863"
     d="m 106.65169,52.35122 c 5.3,4.5 5.5,12.4 5.8,19.4 0.4,12.5 2.9,25.9 11.6,34.9 25,26 23.1,-13.1 67.1,-5 15.4,2.8 31.5,-11.3 30.7,-26.9 11.7,-4.7 24.5,1.7 36,6.8 11.5,5.1 26.3,8.7 35.5,0.1 5.8,-5.4 7.3,-14 11.8,-20.5 7.7,-11.1 22.9,-14.4 36.4,-13.7 13.5,0.7 26.9,4.6 40.4,3.8 3.4,-0.2 6.9,-0.7 9.6,-2.8 3,-2.2 4.5,-5.9 5.8,-9.4 3,-7.7 6.74657,-31.35122 9.74657,-39.05122 l -141.74657,0.35122 -175.780148,0.01 c 4.4,10.4 6.78015,43.49018 17.080148,51.99018 z"
     style="display:inline;fill:#548235;fill-opacity:1"
     />
  <path
     id="path338"
     style="display:inline;fill:#548235;fill-opacity:1;stroke:#000000;stroke-width:0"
     d="m 826.15163,82.65126 c -6.9,0 -80.7003,2.30078 -101.4003,73.80078 -20.7001,71.5 -66.7989,-0.002 -115.2989,6.89844 -48.5,6.9 -34.6008,34.60117 -66.8008,9.20117 -32.3,-25.4 -89.9004,9.19883 -78.4003,73.79883 11.5,64.5 -39.20044,108.30156 -78.40044,87.60156 -39.2,-20.7 -69.19961,36.89961 -99.09961,16.09961 -30,-20.7 -43.79883,41.49883 -73.79883,2.29883 -30,-39.2 9.19844,-57.59844 -23.10156,-89.89844 -32.3,-32.3 -34.59922,36.89883 -50.69922,2.29883 -16.1,-34.6 4.60039,-43.8 -23.09961,-41.5 -27.699998,2.3 -2.29961,-13.79922 -16.099608,-20.69922 -13.8,-6.9 -32.30117,23.1 -50.70117,0 -18.4,-23.1 -46.0996103,2.29883 -46.0996103,2.29883 l -3.15030996,2.3354 0.001,187.27339 c 7.14825996,7.12066 13.18556026,14.13999 24.50651026,14.27012 1.835,0.0211 3.56725,1.10328 5.06055,2.16992 5.89622,4.21158 7.80514,20.58057 8.30859,26.72265 0.83423,10.17757 0.397,21.36313 4.33789,31.08399 1.81637,4.48037 9.4693,7.14956 13.01172,9.75976 5.63027,4.14862 15.73391,5.91863 17.71094,12.28907 2.77343,10.20005 1.28298,20.77126 3.97461,25.30078 0.13038,5.29012 5.47546,12.13811 6.68419,13.5109 3.09147,4.7249 5.96266,13.41904 5.96266,13.41904 285.452638,-0.073 458.424508,-0.0713 739.893208,0.003 l -10e-4,-459.53615 c -1.6,-0.5 -2.8008,-0.80078 -3.3008,-0.80078 z"
     />
  <path
     fill="#FAE884"
     d="m 829.45343,542.98818 v -88.03071 c -4.3,-4.7 -9.4063,-7.90625 -15.6063,-7.70625 -6.8,0.2 -12.9,4.8 -19.6,4.7 -20.1,-0.2 -21.3,-35.4 -40.7,-40.8 -13.6,-3.7 -25.3,9.9 -31.9,22.4 -6.5,12.5 -14.3,27.4 -28.3,28.9 -11.8,1.2 -22.2,-8.4 -27.9,-18.8 -5.7,-10.4 -8.7,-22.3 -15.6,-32 -6.9,-9.7 -20.1,-16.7 -30.7,-11.3 -5.8,2.9 -9.4,8.7 -13.5,13.7 -15,18.4 -40,28.2 -63.5,24.9 -23.8,-3.3 -50.8,-18 -69.2,-2.6 -17.5,14.6 -33.24658,35.9103 -47.04658,54.1103 -8.30004,10.9 -14.76736,45.13832 -18.74439,52.43832 l 422.29267,0.0883 z"
     style="display:inline;fill:#a9d18e;fill-opacity:1"
     />
</svg>
